<?xml version="1.0" encoding="UTF-8"?>
<!DOCTYPE svg PUBLIC "-//W3C//DTD SVG 1.1//EN" "http://www.w3.org/Graphics/SVG/1.1/DTD/svg11.dtd">
<svg xmlns="http://www.w3.org/2000/svg" version="1.1" width="410px" height="458px" style="shape-rendering:geometricPrecision; text-rendering:geometricPrecision; image-rendering:optimizeQuality; fill-rule:evenodd; clip-rule:evenodd" xmlns:xlink="http://www.w3.org/1999/xlink">
<g><path style="opacity:0.972" fill="#1d75bc" d="M 255.5,4.5 C 297.465,3.73643 331.298,19.7364 357,52.5C 361.759,59.0114 365.759,66.0114 369,73.5C 374.637,88.4121 379.471,103.579 383.5,119C 383.262,123.404 380.928,125.571 376.5,125.5C 374.088,125.594 372.255,124.594 371,122.5C 366.824,108.798 362.49,95.131 358,81.5C 334.333,32.4148 295.5,12.5815 241.5,22C 210.404,30.7643 189.237,50.2643 178,80.5C 176.714,85.0959 175.881,89.7626 175.5,94.5C 170.833,94.5 166.167,94.5 161.5,94.5C 166.973,59.3375 185.306,33.5041 216.5,17C 229.399,11.7084 242.399,7.54171 255.5,4.5 Z"/></g>
<g><path style="opacity:0.992" fill="#1d75bc" d="M 154.5,106.5 C 156.833,106.5 159.167,106.5 161.5,106.5C 161.833,120.183 161.499,133.85 160.5,147.5C 154.978,150.19 151.478,154.523 150,160.5C 149.333,177.5 149.333,194.5 150,211.5C 151.017,216.712 153.851,220.545 158.5,223C 121.168,223.5 83.8348,223.667 46.5,223.5C 51.3982,172.458 77.0649,136.291 123.5,115C 133.748,111.358 144.081,108.524 154.5,106.5 Z"/></g>
<g><path style="opacity:0.992" fill="#1c74bc" d="M 175.5,106.5 C 226.361,111.667 261.861,137.667 282,184.5C 286.749,197.079 289.249,210.079 289.5,223.5C 252.498,223.667 215.498,223.5 178.5,223C 182.817,220.685 185.65,217.185 187,212.5C 187.667,194.833 187.667,177.167 187,159.5C 185.117,154.115 181.617,150.115 176.5,147.5C 175.501,133.85 175.167,120.183 175.5,106.5 Z"/></g>
<g><path style="opacity:0.948" fill="#2eb3e3" d="M 167.5,157.5 C 171.987,157.82 174.82,160.153 176,164.5C 176.667,178.833 176.667,193.167 176,207.5C 172.12,215.482 167.454,216.148 162,209.5C 161.333,193.833 161.333,178.167 162,162.5C 163.352,160.251 165.185,158.584 167.5,157.5 Z"/></g>
<g><path style="opacity:0.985" fill="#2fb3e3" d="M 46.5,236.5 C 127.501,236.333 208.501,236.5 289.5,237C 290.65,245.755 290.816,254.588 290,263.5C 238.904,264.331 187.737,264.831 136.5,265C 121.46,265.769 109.294,271.936 100,283.5C 97.4074,288.535 95.7408,293.868 95,299.5C 94.3333,308.167 94.3333,316.833 95,325.5C 96.9702,338.796 104.137,347.962 116.5,353C 121.677,354.961 127.01,356.294 132.5,357C 150.167,357.333 167.833,357.667 185.5,358C 203.024,357.186 210.19,365.353 207,382.5C 202.884,388.644 197.051,391.811 189.5,392C 148.5,392.667 107.5,392.667 66.5,392C 56.5271,376.255 50.1938,359.089 47.5,340.5C 46.5001,305.84 46.1668,271.173 46.5,236.5 Z"/></g>
<g><path style="opacity:0.989" fill="#1c74bc" d="M 153.5,292.5 C 199.072,292.17 244.572,292.503 290,293.5C 290.9,312.226 290.234,330.893 288,349.5C 274.267,405.901 238.767,438.734 181.5,448C 148.365,450.84 118.698,442.174 92.5,422C 130.19,421.942 167.857,421.276 205.5,420C 231.974,416.184 244.641,400.851 243.5,374C 244.491,359.965 240.158,347.965 230.5,338C 223.621,333.151 215.955,330.484 207.5,330C 186.5,329.667 165.5,329.333 144.5,329C 134.73,327.734 129.73,322.234 129.5,312.5C 129.411,304.831 132.745,299.331 139.5,296C 144.224,294.506 148.891,293.339 153.5,292.5 Z"/></g>
</svg>
